<svg
    xmlns="http://www.w3.org/2000/svg"
    viewBox="0 0 512 512"
    id="vector">
    <path
        id="path"
        d="M 225 1 C 246.021 1 267.042 1 288.333 1.395 C 293.048 2.552 297.515 3.203 301.933 4.096 C 330.23 9.819 357.275 18.91 382.572 33.117 C 410.61 48.863 434.668 69.378 455.152 93.906 C 469.82 111.469 481.861 130.859 491.109 151.983 C 501.056 174.706 508.171 198.104 511.081 222.762 C 511.177 223.572 512.336 224.257 513 225 C 513 246.021 513 267.042 512.604 288.335 C 511.815 289.284 511.217 289.917 511.06 290.644 C 508.039 304.655 505.639 318.828 501.956 332.661 C 496.548 352.969 487.467 371.796 476.655 389.798 C 461.562 414.927 442.435 436.671 419.964 455.274 C 401.762 470.343 381.761 482.802 359.859 492.093 C 337.799 501.45 315.147 508.413 291.259 511.082 C 290.445 511.173 289.75 512.336 289 513 C 267.979 513 246.958 513 225.666 512.605 C 224.884 511.83 224.414 511.199 223.857 511.11 C 217.08 510.025 210.219 509.36 203.517 507.936 C 174.183 501.702 146.739 490.72 121.268 474.81 C 98.585 460.642 78.807 443.18 61.395 422.93 C 49.159 408.7 38.669 393.288 29.984 376.691 C 15.852 349.681 6.249 321.199 2.906 290.756 C 2.835 290.109 1.66 289.583 1 289 C 1 267.646 1 246.292 1.388 224.677 C 2.173 223.742 2.779 223.113 2.939 222.385 C 5.958 208.71 8.362 194.87 12.034 181.375 C 17.451 161.463 26.288 142.978 36.854 125.206 C 53.226 97.673 74.295 74.323 99.233 54.549 C 118.236 39.481 139.17 27.38 161.879 18.588 C 181.545 10.973 201.693 5.204 222.744 2.917 C 223.556 2.829 224.251 1.664 225 1 M 116.203 275.025 C 116.213 301.318 116.232 327.611 116.211 353.903 C 116.21 355.549 115.894 357.194 114.829 358.758 L 102.079 358.758 L 102.079 367.712 L 412.014 367.712 L 412.014 358.843 C 407.187 358.843 402.729 358.843 397.999 357.961 C 397.94 329.992 397.881 302.024 398.56 274.131 C 401.847 275.584 405.135 277.036 408.823 278.665 C 411.002 273.064 413.009 267.907 415.124 262.471 C 385.765 249.06 356.936 235.89 327.995 221.825 C 328.014 215.279 328.032 208.732 328.658 202.413 C 330.895 204.322 333.131 206.232 335.645 208.377 C 339.118 203.584 342.316 199.17 345.693 194.51 C 344.234 193.188 343.039 192.063 341.8 190.989 C 316.52 169.074 291.265 147.131 265.907 125.307 C 263.274 123.041 261.945 120.733 262.213 117.221 C 262.491 113.58 262.404 109.896 262.24 106.241 C 262.112 103.412 263.239 102.359 266.016 102.459 C 269.777 102.595 273.547 102.493 277.387 102.493 L 277.387 92.942 L 262.525 92.942 C 262.346 89.07 262.188 85.667 262.029 82.233 L 251.877 82.233 L 251.877 93.096 L 237.296 93.096 L 237.296 102.715 L 252.111 102.715 C 252.111 107.501 251.862 111.66 252.18 115.776 C 252.503 119.955 251.157 122.777 247.874 125.57 C 226.952 143.36 206.238 161.396 185.463 179.359 C 179.967 184.111 174.495 188.89 168.821 193.824 C 172.509 198.45 175.908 202.714 179.401 207.096 C 181.743 205.304 183.837 203.701 186.019 203.019 C 185.974 209.614 185.93 216.209 185.174 222.963 C 156.5 236.134 127.826 249.304 98.861 262.607 C 101.139 268.132 103.247 273.246 105.426 278.533 C 109.452 276.872 112.807 275.487 116.203 275.025 Z"
        fill="#21b3a9"
        stroke-width="1"/>
    <path
        id="path_1"
        d="M 513 224.531 C 512.336 224.257 511.177 223.572 511.081 222.762 C 508.171 198.104 501.056 174.706 491.109 151.983 C 481.861 130.859 469.82 111.469 455.152 93.906 C 434.668 69.378 410.61 48.863 382.572 33.117 C 357.275 18.91 330.23 9.819 301.933 4.096 C 297.515 3.203 293.048 2.552 288.802 1.395 C 363.594 1 438.187 1 513 1 L 513 224.531 Z M 1 289.469 C 1.66 289.583 2.835 290.109 2.906 290.756 C 6.249 321.199 15.852 349.681 29.984 376.691 C 38.669 393.288 49.159 408.7 61.395 422.93 C 78.807 443.18 98.585 460.642 121.268 474.81 C 146.739 490.72 174.183 501.702 203.517 507.936 C 210.219 509.36 217.08 510.025 223.857 511.11 C 224.414 511.199 224.884 511.83 225.198 512.605 C 150.406 513 75.813 513 1 513 L 1 289.469 Z M 289.469 513 C 289.75 512.336 290.445 511.173 291.259 511.082 C 315.147 508.413 337.799 501.45 359.859 492.093 C 381.761 482.802 401.762 470.343 419.964 455.274 C 442.435 436.671 461.562 414.927 476.655 389.798 C 487.467 371.796 496.548 352.969 501.956 332.661 C 505.639 318.828 508.039 304.655 511.06 290.644 C 511.217 289.917 511.815 289.284 512.604 288.804 C 513 363.594 513 438.187 513 513 L 289.469 513 Z M 224.531 1 C 224.251 1.664 223.556 2.829 222.744 2.917 C 201.693 5.204 181.545 10.973 161.879 18.588 C 139.17 27.38 118.236 39.481 99.233 54.549 C 74.295 74.323 53.226 97.673 36.854 125.206 C 26.288 142.978 17.451 161.463 12.034 181.375 C 8.362 194.87 5.958 208.71 2.939 222.385 C 2.779 223.113 2.173 223.742 1.388 224.209 C 1 149.739 1 75.479 1 1 L 224.531 1 Z"
        fill="#000000"
        fill-opacity="0"
        stroke-width="1"/>
    <path
        id="path_2"
        d="M 185.885 222.804 C 185.93 216.209 185.974 209.614 186.162 202.273 C 206.675 183.901 227.034 166.263 247.418 148.655 C 257.019 140.362 257.078 140.346 266.771 148.773 C 287.22 166.552 307.627 184.379 328.051 202.186 C 328.032 208.732 328.014 215.279 327.978 222.755 C 327.998 229.748 328.035 235.811 328.059 242.351 C 328.032 279.462 328.045 316.098 327.964 352.734 C 327.955 356.591 328.562 359.078 333.33 359.036 C 354.976 358.849 376.624 358.886 398.271 358.843 L 412.014 358.843 L 412.014 367.712 L 102.079 367.712 L 102.079 358.758 C 106.31 358.758 110.569 358.758 115.761 358.833 C 137.839 358.931 158.986 358.859 180.13 359.053 C 184.858 359.097 186.073 357.142 186.058 352.775 C 185.927 315.812 185.953 278.848 185.976 241.425 C 185.975 234.911 185.93 228.858 185.885 222.804 M 263.599 283.533 C 244.465 280.004 229.988 291.965 229.909 311.441 C 229.852 325.421 229.888 339.401 229.906 353.382 C 229.909 354.991 230.066 356.6 230.16 358.369 L 284.089 358.369 C 284.089 342.228 284.152 326.441 284.069 310.654 C 284 297.338 277.084 288.005 263.599 283.533 M 234.224 234.651 C 235.891 235.704 237.557 236.758 239.224 237.811 C 240.367 235.99 242.353 234.232 242.495 232.336 C 242.929 226.541 242.656 220.693 242.655 214.865 C 242.654 211.886 241.696 209.276 238.352 209.276 C 235.052 209.275 234.004 211.766 234.031 214.817 C 234.085 221.143 234.072 227.47 234.224 234.651 M 298.56 220.609 C 298.553 218.619 298.558 216.629 298.536 214.639 C 298.503 211.646 297.365 208.841 294.134 209.448 C 292.498 209.756 290.339 212.633 290.187 214.493 C 289.688 220.587 290.004 226.748 290 232.884 C 289.998 235.863 291.551 238.109 294.388 237.538 C 296.002 237.213 298.039 234.743 298.332 232.98 C 298.95 229.267 298.545 225.383 298.56 220.609 M 271.285 215.958 C 271.289 221.437 271.277 226.917 271.303 232.396 C 271.318 235.421 272.555 238.164 275.783 237.501 C 277.442 237.16 279.575 234.337 279.75 232.472 C 280.276 226.876 279.898 221.199 279.963 215.554 C 279.998 212.476 279.482 209.506 275.863 209.304 C 272.203 209.099 271.298 211.932 271.285 215.958 M 215.408 218.719 C 215.413 223.198 215.43 227.677 215.417 232.155 C 215.408 235.128 216.269 237.684 219.679 237.688 C 223.021 237.692 224.046 235.301 224.006 232.236 C 223.945 227.427 224.062 222.614 223.971 217.805 C 223.904 214.315 225.07 209.396 219.722 209.382 C 214.361 209.368 215.646 214.318 215.408 218.719 M 258.186 209.425 C 255.181 208.894 253.076 210.135 252.98 213.144 C 252.759 220.093 252.746 227.063 253.078 234.004 C 253.138 235.273 255.109 237.249 256.412 237.44 C 257.747 237.635 260.612 236.068 260.631 235.224 C 260.814 227.178 260.557 219.122 260.325 211.072 C 260.312 210.629 259.401 210.213 258.186 209.425 Z"
        fill="#e1e6e9"
        stroke-width="1"/>
    <path
        id="path_3"
        d="M 398.135 358.402 C 376.624 358.886 354.976 358.849 333.33 359.036 C 328.562 359.078 327.955 356.591 327.964 352.734 C 328.045 316.098 328.032 279.462 328.405 242.447 C 351.783 252.73 374.802 263.392 397.822 274.055 C 397.881 302.024 397.94 329.992 398.135 358.402 M 369.577 296.522 C 366.425 291.526 362.844 289.969 358.58 291.74 C 353.495 293.852 351.867 299.322 353.848 307.606 L 369.849 307.606 C 369.849 303.909 369.849 300.615 369.577 296.522 M 370.1 338.474 C 370.093 336.975 370.156 335.473 370.066 333.979 C 369.77 329.048 366.51 325.663 361.982 325.514 C 357.422 325.363 353.764 328.513 353.268 333.377 C 352.988 336.124 353.218 338.923 353.218 341.956 C 355.206 342.08 356.667 342.234 358.13 342.249 C 361.293 342.281 364.479 342.449 367.605 342.102 C 368.522 342 369.267 340.355 370.1 338.474 Z M 185.932 241.884 C 185.953 278.848 185.927 315.812 186.058 352.775 C 186.073 357.142 184.858 359.097 180.13 359.053 C 158.986 358.859 137.839 358.931 116.209 358.874 C 115.894 357.194 116.21 355.549 116.211 353.903 C 116.232 327.611 116.213 301.318 116.457 274.356 C 139.784 263.086 162.858 252.485 185.932 241.884 M 151.641 291.081 C 144.167 293.31 142.44 297.307 144.524 307.603 L 160.48 307.603 C 161.648 296.007 160.034 292.792 151.641 291.081 M 160.634 341.188 C 160.499 337.888 160.861 334.47 160.109 331.318 C 159.087 327.03 155.642 325.201 151.342 325.632 C 147.22 326.045 144.58 328.558 144.075 332.657 C 143.701 335.699 144.002 338.824 144.002 341.884 C 149.776 341.884 154.9 341.884 160.634 341.188 Z"
        fill="#d4d5da"
        stroke-width="1"/>
    <path
        id="path_4"
        d="M 328.354 202.299 C 307.627 184.379 287.22 166.552 266.771 148.773 C 257.078 140.346 257.019 140.362 247.418 148.655 C 227.034 166.263 206.675 183.901 186.119 201.812 C 183.837 203.701 181.743 205.304 179.401 207.096 C 175.908 202.714 172.509 198.45 168.821 193.824 C 174.495 188.89 179.967 184.111 185.463 179.359 C 206.238 161.396 226.952 143.36 247.874 125.57 C 251.157 122.777 252.503 119.955 252.18 115.776 C 251.862 111.66 252.111 107.501 252.111 102.715 L 237.296 102.715 L 237.296 93.096 L 251.877 93.096 L 251.877 82.233 L 262.029 82.233 C 262.188 85.667 262.346 89.07 262.525 92.942 L 277.387 92.942 L 277.387 102.493 C 273.547 102.493 269.777 102.595 266.016 102.459 C 263.239 102.359 262.112 103.412 262.24 106.241 C 262.404 109.896 262.491 113.58 262.213 117.221 C 261.945 120.733 263.274 123.041 265.907 125.307 C 291.265 147.131 316.52 169.074 341.8 190.989 C 343.039 192.063 344.234 193.188 345.693 194.51 C 342.316 199.17 339.118 203.584 335.645 208.377 C 333.131 206.232 330.895 204.322 328.354 202.299 Z M 398.191 274.093 C 374.802 263.392 351.783 252.73 328.418 241.971 C 328.035 235.811 327.998 229.748 328.034 223.203 C 356.936 235.89 385.765 249.06 415.124 262.471 C 413.009 267.907 411.002 273.064 408.823 278.665 C 405.135 277.036 401.847 275.584 398.191 274.093 Z M 185.976 241.425 C 162.858 252.485 139.784 263.086 116.437 273.894 C 112.807 275.487 109.452 276.872 105.426 278.533 C 103.247 273.246 101.139 268.132 98.861 262.607 C 127.826 249.304 156.5 236.134 185.53 222.884 C 185.93 228.858 185.975 234.911 185.976 241.425 Z"
        fill="#fc7159"
        stroke-width="1"/>
    <path
        id="path_5"
        d="M 263.998 283.66 C 277.084 288.005 284 297.338 284.069 310.654 C 284.152 326.441 284.089 342.228 284.089 358.369 L 230.16 358.369 C 230.066 356.6 229.909 354.991 229.906 353.382 C 229.888 339.401 229.852 325.421 229.909 311.441 C 229.988 291.965 244.465 280.004 263.998 283.66 Z"
        fill="#3f6c83"
        stroke-width="1"/>
    <path
        id="path_6"
        d="M 234.155 234.224 C 234.072 227.47 234.085 221.143 234.031 214.817 C 234.004 211.766 235.052 209.275 238.352 209.276 C 241.696 209.276 242.654 211.886 242.655 214.865 C 242.656 220.693 242.929 226.541 242.495 232.336 C 242.353 234.232 240.367 235.99 239.224 237.811 C 237.557 236.758 235.891 235.704 234.155 234.224 Z"
        fill="#445e72"
        stroke-width="1"/>
    <path
        id="path_7"
        d="M 298.56 221.089 C 298.545 225.383 298.95 229.267 298.332 232.98 C 298.039 234.743 296.002 237.213 294.388 237.538 C 291.551 238.109 289.998 235.863 290 232.884 C 290.004 226.748 289.688 220.587 290.187 214.493 C 290.339 212.633 292.498 209.756 294.134 209.448 C 297.365 208.841 298.503 211.646 298.536 214.639 C 298.558 216.629 298.553 218.619 298.56 221.089 Z M 271.287 215.516 C 271.298 211.932 272.203 209.099 275.863 209.304 C 279.482 209.506 279.998 212.476 279.963 215.554 C 279.898 221.199 280.276 226.876 279.75 232.472 C 279.575 234.337 277.442 237.16 275.783 237.501 C 272.555 238.164 271.318 235.421 271.303 232.396 C 271.277 226.917 271.289 221.437 271.287 215.516 Z"
        fill="#455e72"
        stroke-width="1"/>
    <path
        id="path_8"
        d="M 215.409 218.254 C 215.646 214.318 214.361 209.368 219.722 209.382 C 225.07 209.396 223.904 214.315 223.971 217.805 C 224.062 222.614 223.945 227.427 224.006 232.236 C 224.046 235.301 223.021 237.692 219.679 237.688 C 216.269 237.684 215.408 235.128 215.417 232.155 C 215.43 227.677 215.413 223.198 215.409 218.254 Z"
        fill="#445e72"
        stroke-width="1"/>
    <path
        id="path_9"
        d="M 258.547 209.604 C 259.401 210.213 260.312 210.629 260.325 211.072 C 260.557 219.122 260.814 227.178 260.631 235.224 C 260.612 236.068 257.747 237.635 256.412 237.44 C 255.109 237.249 253.138 235.273 253.078 234.004 C 252.746 227.063 252.759 220.093 252.98 213.144 C 253.076 210.135 255.181 208.894 258.547 209.604 Z"
        fill="#3d576c"
        stroke-width="1"/>
    <path
        id="path_10"
        d="M 369.713 296.921 C 369.849 300.615 369.849 303.909 369.849 307.606 L 353.848 307.606 C 351.867 299.322 353.495 293.852 358.58 291.74 C 362.844 289.969 366.425 291.526 369.713 296.921 Z M 370.095 338.946 C 369.267 340.355 368.522 342 367.605 342.102 C 364.479 342.449 361.293 342.281 358.13 342.249 C 356.667 342.234 355.206 342.08 353.218 341.956 C 353.218 338.923 352.988 336.124 353.268 333.377 C 353.764 328.513 357.422 325.363 361.982 325.514 C 366.51 325.663 369.77 329.048 370.066 333.979 C 370.156 335.473 370.093 336.975 370.095 338.946 Z M 152.03 291.071 C 160.034 292.792 161.648 296.007 160.48 307.603 L 144.524 307.603 C 142.44 297.307 144.167 293.31 152.03 291.071 Z M 160.329 341.536 C 154.9 341.884 149.776 341.884 144.002 341.884 C 144.002 338.824 143.701 335.699 144.075 332.657 C 144.58 328.558 147.22 326.045 151.342 325.632 C 155.642 325.201 159.087 327.03 160.109 331.318 C 160.861 334.47 160.499 337.888 160.329 341.536 Z"
        fill="#3d586c"
        stroke-width="1"/>
</svg>
