<?xml version="1.0" ?><svg viewBox="0 0 64 64" xmlns="http://www.w3.org/2000/svg"><defs><style>.cls-1{fill:#d2ddff;}.cls-2{fill:none;}.cls-2,.cls-4,.cls-5,.cls-6,.cls-7,.cls-8,.cls-9{stroke:#4c241d;stroke-linecap:round;stroke-linejoin:round;stroke-width:2px;}.cls-3{fill:#4c241d;}.cls-4{fill:#ffce56;}.cls-5{fill:#b5a19c;}.cls-6{fill:#9dc1e4;}.cls-7{fill:#6b4f5b;}.cls-8{fill:#fff;}.cls-9{fill:#e66353;}</style></defs><g id="car-delivery"><circle class="cls-1" cx="31.8333" cy="29.0346" r="21.5"/><circle class="cls-2" cx="18.8333" cy="13.0346" r="2.5"/><circle class="cls-3" cx="53.8333" cy="38.0346" r="1.0691"/><polyline class="cls-4" points="4.329 51 27 51 27 44.344 20.1 40.784 14.843 29 4 29"/><circle class="cls-3" cx="9.8333" cy="10.0346" r="1.0691"/><polyline class="cls-5" points="4 51 27 51 27 55 4 55"/><path class="cls-6" d="M20.1,40.7839,16.1812,32H9v5.0535A3.9465,3.9465,0,0,0,12.9465,41h7.5724Z"/><line class="cls-2" x1="24" x2="27" y1="45" y2="45"/><circle class="cls-7" cx="17.5" cy="55.5" r="4.5"/><circle class="cls-7" cx="17.5" cy="55.5" r="1.5"/><line class="cls-2" x1="28.9191" x2="31.7475" y1="30.1203" y2="32.9488"/><line class="cls-2" x1="31.7475" x2="28.9191" y1="30.1203" y2="32.9488"/><polygon class="cls-8" points="56 28 38 28 38 12 47 7 56 12 56 28"/><path class="cls-9" d="M58.999,17.5a1.4962,1.4962,0,0,1-.9594-.3477L47,7.9521l-11.04,9.2A1.5,1.5,0,0,1,34.04,14.8477l12-10a1.502,1.502,0,0,1,1.9208,0l12,10A1.5,1.5,0,0,1,58.999,17.5Z"/><rect class="cls-7" height="9" width="6" x="44" y="19"/><path class="cls-2" d="M47,30.5v4.0231a3.8041,3.8041,0,0,1-3.8041,3.8041H41.8041A3.804,3.804,0,0,0,38,42.1313h0a3.8041,3.8041,0,0,0,3.8041,3.8041H53.1772a3.8041,3.8041,0,0,1,3.8041,3.7906l.0052,1.4564A3.8042,3.8042,0,0,1,53.1824,55H32"/></g></svg>